<svg width="84" height="11" fill="none" xmlns="http://www.w3.org/2000/svg"><path fill-rule="evenodd" clip-rule="evenodd" d="M4.894.47c.218-.627 1.104-.627 1.322 0l.859 2.468a.7.7 0 00.661.47h2.672c.69 0 .964.892.393 1.28L8.724 6.094a.7.7 0 00-.268.81l.813 2.334c.221.636-.497 1.188-1.054.81L5.948 8.51a.7.7 0 00-.786 0l-2.267 1.537c-.558.379-1.276-.173-1.054-.81l.812-2.333a.7.7 0 00-.268-.81L.308 4.687c-.57-.387-.296-1.28.393-1.28h2.672a.7.7 0 00.661-.47L4.894.47zm18 0c.218-.627 1.104-.627 1.322 0l.859 2.468a.7.7 0 00.661.47h2.672c.69 0 .964.892.393 1.28l-2.077 1.407a.7.7 0 00-.268.81l.813 2.334c.221.636-.497 1.188-1.054.81L23.948 8.51a.7.7 0 00-.786 0l-2.267 1.537c-.558.379-1.276-.173-1.054-.81l.812-2.333a.7.7 0 00-.268-.81l-2.077-1.408c-.57-.387-.296-1.28.393-1.28h2.672a.7.7 0 00.661-.47l.86-2.467zm19.322 0c-.218-.627-1.104-.627-1.322 0l-.86 2.468a.7.7 0 01-.66.47H36.7c-.69 0-.963.892-.393 1.28l2.077 1.407a.7.7 0 01.268.81l-.812 2.334c-.222.636.496 1.188 1.054.81l2.267-1.538a.7.7 0 01.786 0l2.267 1.537c.557.379 1.275-.173 1.053-.81l-.812-2.333a.7.7 0 01.268-.81L46.8 4.687c.57-.387.297-1.28-.393-1.28h-2.672a.7.7 0 01-.661-.47L42.215.47zm16.678 0c.218-.627 1.104-.627 1.322 0l.859 2.468a.7.7 0 00.661.47h2.672c.69 0 .964.892.393 1.28l-2.077 1.407a.7.7 0 00-.268.81l.813 2.334c.221.636-.497 1.188-1.054.81L59.948 8.51a.7.7 0 00-.786 0l-2.267 1.537c-.558.379-1.276-.173-1.054-.81l.812-2.333a.7.7 0 00-.268-.81l-2.077-1.408c-.57-.387-.296-1.28.393-1.28h2.672a.7.7 0 00.661-.47l.86-2.467zm19.322 0c-.218-.627-1.104-.627-1.322 0l-.86 2.468a.7.7 0 01-.66.47H72.7c-.69 0-.963.892-.393 1.28l2.077 1.407a.7.7 0 01.268.81l-.812 2.334c-.222.636.496 1.188 1.054.81l2.267-1.538a.7.7 0 01.786 0l2.267 1.537c.557.379 1.275-.173 1.053-.81l-.812-2.333a.7.7 0 01.268-.81L82.8 4.687c.57-.387.297-1.28-.393-1.28h-2.672a.7.7 0 01-.661-.47L78.215.47z" fill="#F9CE1E"/></svg>